# xmcd
#
# Track frame offsets:
#	150
#	19264
#	35166
#	51808
#	70661
#	90996
#	108006
#	126052
#	141062
#	156602
# Disc length: 2331 seconds
# Revision: 1
# Processed by: cddbd v1.5.2PL0 Copyright (c) Steve Scherf et al.
#
# Submitted via: libkcddb 0.31
#
DISCID=8109190a
DTITLE=Boizinho Barrica - Trupiada
DYEAR=1900
DGENRE=
TTITLE0=Roberto Brandão - A Ilha
TTITLE1=Inácio Pinheiro - Mina de Luz
TTITLE2=Roberto Brandão - Festa
TTITLE3=Roberto Brandão - Gaiola de Ouro
TTITLE4=Inácio Pinheiro - Luinha
TTITLE5=Inácio Pinheiro - Estrela Boieira
TTITLE6=Roberto Brandão - Adorada Estrela
TTITLE7=Inácio Pinheiro - O Mar
TTITLE8=Roberto Brandão - Touro Errante
TTITLE9=Inácio Pinheiro - Cururupu
EXTD=
EXTT0=Godão
EXTT1=Godão
EXTT2=Bulcão
EXTT3=Bulcão
EXTT4=Bulcão
EXTT5=Godão
EXTT6=Godão
EXTT7=Bulcão
EXTT8=Bulcão
EXTT9=Godão
PLAYORDER=
